Coordinates
version=1
nRows=14
nColumns=63
inDegrees=yes

Units are S.I. units (second, meters, Newtons, ...)
If the header above contains a line with 'inDegrees', this indicates whether rotational values are in degrees (yes) or radians (no).

endheader
time	pelvis_tilt	pelvis_list	pelvis_rotation	pelvis_tx	pelvis_ty	pelvis_tz	hip_flexion_r	hip_adduction_r	hip_rotation_r	knee_angle_r	knee_angle_r_beta	ankle_angle_r	subtalar_angle_r	mtp_angle_r	hip_flexion_l	hip_adduction_l	hip_rotation_l	knee_angle_l	knee_angle_l_beta	ankle_angle_l	subtalar_angle_l	mtp_angle_l	L5_S1_Flex_Ext	L5_S1_Lat_Bending	L5_S1_axial_rotation	L4_L5_Flex_Ext	L4_L5_Lat_Bending	L4_L5_axial_rotation	L3_L4_Flex_Ext	L3_L4_Lat_Bending	L3_L4_axial_rotation	L2_L3_Flex_Ext	L2_L3_Lat_Bending	L2_L3_axial_rotation	L1_L2_Flex_Ext	L1_L2_Lat_Bending	L1_L2_axial_rotation	L1_T12_Flex_Ext	L1_T12_Lat_Bending	L1_T12_axial_rotation	Abs_r3	Abs_r2	Abs_r1	Abs_t1	Abs_t2	neck_flexion	neck_bending	neck_rotation	arm_flex_r	arm_add_r	arm_rot_r	elbow_flex_r	pro_sup_r	wrist_flex_r	wrist_dev_r	arm_flex_l	arm_add_l	arm_rot_l	elbow_flex_l	pro_sup_l	wrist_flex_l	wrist_dev_l
3.350000	-1.955766	-4.113477	94.165859	0.232186	1.001135	0.480290	0.804733	-1.504933	-8.603470	4.798246	0.083745	18.899409	9.651651	0.000000	1.609017	2.303811	-12.387001	2.808041	0.049010	23.881426	9.457389	0.000000	0.011410	-0.478279	1.113434	0.021190	-0.636111	1.183024	0.018746	-1.162888	1.183024	0.013041	-1.162888	0.974255	0.010595	-0.975307	0.904665	0.006520	-0.740854	0.835075	0.081501	-5.410389	6.192586	0.000000	0.000000	26.371366	4.038097	-3.725755	13.907627	-27.481304	109.559271	8.003678	15.325137	-10.463312	-4.333680	14.324310	-39.117973	173.079707	11.929635	11.284659	-0.243135	5.901848
3.366667	-1.929264	-4.202780	94.339011	0.232089	1.000716	0.481093	0.974743	-1.499011	-8.539743	4.894992	0.085434	18.948526	9.457071	0.000000	1.919608	2.231227	-12.807801	3.143675	0.054867	23.963079	10.040244	0.000000	0.012600	-0.470587	1.090359	0.023400	-0.625880	1.158507	0.020701	-1.144184	1.158507	0.014401	-1.144184	0.954064	0.011701	-0.959620	0.885917	0.007200	-0.728939	0.817770	0.090002	-5.323369	6.064252	0.000000	0.000000	26.423351	3.906933	-3.477690	13.965773	-27.012532	108.082129	7.965392	14.541352	-9.687205	-3.834067	14.917215	-38.974992	166.895272	12.151162	11.826203	-0.239249	5.206067
3.383333	-1.900604	-4.321394	94.566418	0.231883	1.000266	0.482087	1.194558	-1.510123	-8.698547	5.023022	0.087668	19.045607	9.432128	0.000000	2.290153	2.165272	-13.191679	3.511653	0.061290	24.027072	10.647566	0.000000	0.014879	-0.461558	1.052442	0.027633	-0.613872	1.118220	0.024445	-1.122232	1.118220	0.017006	-1.122232	0.920887	0.013817	-0.941209	0.855109	0.008502	-0.714953	0.789332	0.106282	-5.221234	5.853367	0.000000	0.000000	26.488044	3.775680	-3.152049	14.171696	-26.333844	107.506112	7.826161	13.354866	-8.846394	-3.413784	15.541133	-38.641647	160.642132	12.194360	12.491902	-0.145454	4.411867
3.400000	-1.854443	-4.460309	94.867524	0.231507	0.999816	0.483229	1.447817	-1.522495	-9.063325	5.176328	0.090344	19.178462	9.536407	0.000000	2.707389	2.093864	-13.489946	3.909231	0.068229	24.092008	11.240036	0.000000	0.018403	-0.449187	0.995078	0.034176	-0.597419	1.057270	0.030234	-1.092154	1.057270	0.021032	-1.092154	0.870693	0.017089	-0.915982	0.808501	0.010515	-0.695791	0.746308	0.131449	-5.081295	5.534325	0.000000	0.000000	26.564517	3.621344	-2.773992	14.542141	-25.477710	107.847116	7.641063	11.905826	-7.932988	-3.253834	16.170909	-38.055141	154.825105	12.019307	13.545196	-0.053969	3.304502
3.416667	-1.805307	-4.601834	95.204368	0.231024	0.999475	0.484529	1.720613	-1.539283	-9.502106	5.348964	0.093357	19.259950	9.574782	0.000000	3.142094	2.027282	-13.669342	4.320368	0.075405	24.103920	11.728640	0.000000	0.021081	-0.434847	0.930013	0.039149	-0.578346	0.988138	0.034634	-1.057287	0.988138	0.024093	-1.057287	0.813761	0.019576	-0.886740	0.755635	0.012046	-0.673578	0.697509	0.150579	-4.919074	5.172451	0.000000	0.000000	26.629151	3.468919	-2.330542	15.077296	-24.467115	108.582867	7.486832	10.622375	-6.921164	-3.244621	16.801312	-37.049983	150.781812	11.584528	14.218181	-0.014252	1.788502
3.433333	-1.739545	-4.743931	95.605647	0.230362	0.999278	0.485933	2.000096	-1.558301	-10.150045	5.540527	0.096700	19.297526	9.721324	0.000000	3.585392	1.960707	-13.729927	4.734452	0.082632	24.078305	12.139793	0.000000	0.024444	-0.416753	0.851680	0.045396	-0.554282	0.904910	0.040160	-1.013294	0.904910	0.027938	-1.013294	0.745220	0.022699	-0.849844	0.691990	0.013968	-0.645551	0.638760	0.174604	-4.714398	4.736789	0.000000	0.000000	26.679668	3.314477	-1.837235	15.800400	-23.328245	109.888989	7.415756	9.348961	-5.783618	-3.517873	17.367695	-35.704304	148.064357	10.914171	14.729311	-0.254527	-0.055804
3.450000	-1.667944	-4.880869	96.072547	0.229513	0.999288	0.487422	2.274463	-1.590529	-11.023490	5.744801	0.100266	19.252558	9.973282	0.000000	4.019870	1.910081	-13.637729	5.131194	0.089556	23.971568	12.407737	0.000000	0.028168	-0.396067	0.767356	0.052310	-0.526769	0.815316	0.046277	-0.962997	0.815316	0.032193	-0.962997	0.671436	0.026156	-0.807660	0.623477	0.016095	-0.613508	0.575517	0.201199	-4.480387	4.267804	0.000000	0.000000	26.693600	3.117552	-1.345238	16.659715	-22.059736	111.824558	7.316994	8.033253	-4.487393	-4.121037	17.895573	-34.013484	146.678921	10.041690	14.972003	-0.784211	-2.163164
3.466667	-1.571499	-5.004294	96.601346	0.228464	0.999523	0.488921	2.524925	-1.616028	-12.082482	5.952192	0.103885	19.130116	10.319002	0.000000	4.424305	1.858653	-13.363506	5.492015	0.095854	23.808093	12.509108	0.000000	0.033238	-0.370550	0.683127	0.061727	-0.492831	0.725823	0.054607	-0.900954	0.725823	0.037988	-0.900954	0.597736	0.030865	-0.755625	0.555041	0.018992	-0.573981	0.512345	0.237419	-4.191730	3.799348	0.000000	0.000000	26.675037	2.900262	-0.859591	17.614133	-20.674819	114.444421	7.091013	6.693757	-3.080883	-4.995742	18.395778	-31.934211	146.850279	8.981801	15.071881	-1.436848	-4.470328
3.483333	-1.464257	-5.067689	97.157880	0.227272	1.000263	0.490554	2.715677	-1.640815	-13.318549	6.161622	0.107541	18.850893	10.782845	0.000000	4.749673	1.808637	-12.985309	5.800053	0.101230	23.511562	12.490746	0.000000	0.034944	-0.341805	0.603704	0.064894	-0.454601	0.641435	0.057409	-0.831065	0.641435	0.039937	-0.831065	0.528241	0.032449	-0.697009	0.490509	0.019967	-0.529456	0.452778	0.249600	-3.866568	3.357620	0.000000	0.000000	26.521687	2.671473	-0.477537	19.223435	-18.701487	123.858339	4.880692	0.608074	-1.425773	-7.409934	19.239294	-28.701953	153.815868	5.694300	11.039045	-0.476683	-8.542322
3.500000	-1.370454	-5.137922	97.741237	0.225997	1.001037	0.492037	2.884814	-1.688776	-14.652432	6.361660	0.111032	18.550916	11.276842	0.000000	5.037144	1.796854	-12.399395	6.043585	0.105480	23.170009	12.243642	0.000000	0.039056	-0.315883	0.528107	0.072531	-0.420125	0.561114	0.064165	-0.768039	0.561114	0.044637	-0.768039	0.462094	0.036268	-0.644149	0.429087	0.022317	-0.489303	0.396080	0.278975	-3.573335	2.937174	0.000000	0.000000	26.386726	2.463236	-0.163957	20.601281	-16.864546	130.672344	3.485641	-2.932182	-0.236984	-9.588747	19.873301	-25.600947	158.506307	3.516658	9.765688	0.509178	-11.738053
3.516667	-1.300548	-5.207642	98.316056	0.224701	1.001813	0.493306	3.021220	-1.762020	-15.978918	6.546450	0.114257	18.245543	11.731325	0.000000	5.270717	1.822447	-11.794550	6.220058	0.108560	22.834168	12.003959	0.000000	0.044586	-0.294652	0.462614	0.082802	-0.391888	0.491528	0.073251	-0.716418	0.491528	0.050958	-0.716418	0.404788	0.041403	-0.600855	0.375874	0.025477	-0.456417	0.346961	0.318477	-3.333167	2.572923	0.000000	0.000000	26.281344	2.256354	0.009362	21.638034	-15.157506	133.905687	2.960460	-3.059571	0.429783	-11.531592	20.375814	-22.679390	160.600943	2.339470	10.883957	1.566701	-13.977934
3.533333	-1.257801	-5.267235	98.860121	0.223412	1.002558	0.494330	3.111798	-1.859829	-17.292816	6.708482	0.117085	17.967080	12.202484	0.000000	5.430401	1.887999	-11.094345	6.313973	0.110200	22.508251	11.656309	0.000000	0.050226	-0.278858	0.414499	0.093276	-0.370882	0.440405	0.082517	-0.678016	0.440405	0.057404	-0.678016	0.362687	0.046640	-0.568648	0.336780	0.028699	-0.431952	0.310874	0.358763	-3.154501	2.305319	0.000000	0.000000	26.207819	2.058390	0.000279	22.300086	-13.544469	134.265268	3.245255	-0.822056	0.694417	-13.145755	20.882258	-19.907636	161.183234	2.065157	12.671898	2.591287	-15.476411
3.550000	-1.234640	-5.308518	99.351006	0.222147	1.003237	0.495066	3.149522	-1.970639	-18.560089	6.845532	0.119477	17.735832	12.713463	0.000000	5.502229	1.981476	-10.289378	6.317523	0.110262	22.221114	11.186684	0.000000	0.055371	-0.267180	0.379181	0.102830	-0.355349	0.402880	0.090969	-0.649620	0.402880	0.063284	-0.649620	0.331784	0.051418	-0.544833	0.308085	0.031639	-0.413861	0.284386	0.395510	-3.022389	2.108893	0.000000	0.000000	26.170699	1.877174	-0.138231	22.592993	-11.985272	132.089849	4.218766	3.161962	0.722040	-14.273163	21.328557	-17.334770	159.775095	2.637928	15.001271	3.520547	-16.252423
3.566667	-1.236829	-5.320126	99.765097	0.220946	1.003831	0.495512	3.126623	-2.093835	-19.703775	6.955671	0.121399	17.571447	13.231674	0.000000	5.475717	2.102909	-9.432425	6.234279	0.108809	21.988190	10.627568	0.000000	0.058093	-0.260206	0.360631	0.107884	-0.346073	0.383171	0.095441	-0.632664	0.383171	0.066394	-0.632664	0.315552	0.053945	-0.530611	0.293013	0.033194	-0.403058	0.270474	0.414951	-2.943498	2.005724	0.000000	0.000000	26.170433	1.699778	-0.423129	22.497147	-10.490416	127.469406	5.812647	8.440950	0.596687	-14.752842	21.720146	-14.972609	156.728730	3.993234	17.173022	4.299346	-16.447143
